<?xml version="1.0" standalone="no"?>
<svg xmlns="http://www.w3.org/2000/svg" viewBox="0 0 170.232 36" width="170.232" height="36"><g fill="#ff5576" color="#ff5576" transform="translate(0 4) scale(0.6363637)"><svg width="44.0" height="44.0" x="0.0" y="0.0" viewBox="0 0 44 44"><path fill="currentColor" fill-rule="evenodd" d="M21.973 29.756l14.787 8.535-9.168 5.28-5.605-3.224-5.563 3.225-9.182-5.281 14.73-8.535zm0-15.005L44 27.454v6.492l-3.52 2.07-18.506-10.675L3.525 36.016l-3.52-2.042v-6.52L21.973 14.75zM21.97 0l22.026 12.689v10.576L21.984 10.591 0 23.294V12.703L21.97 0z"></path></svg></g><path fill="#0b0cac" fill-rule="nonzero" d="M10.54 15.07L10.54 18.05L5.45 18.05Q2.57 18.05 1.28 16.93Q0 15.82 0 13.30L0 13.30L0 0.96L3.34 0.96L3.34 13.30Q3.34 14.30 3.79 14.69Q4.25 15.07 5.45 15.07L5.45 15.07L10.54 15.07ZM23.21 4.34L23.21 18.05L20.88 18.05L20.16 16.42L16.32 18.19Q14.71 18.19 13.52 17.00Q12.34 15.82 12.34 13.54L12.34 13.54L12.34 4.34L15.46 4.34L15.46 12.86Q15.46 15.14 17.28 15.14L17.28 15.14L20.09 13.63L20.09 4.34L23.21 4.34ZM33.72 13.03L33.72 13.03L36.55 13.01Q36.53 13.20 36.50 13.70Q36.48 14.21 36.47 14.39Q36.46 14.57 36.41 14.95Q36.36 15.34 36.30 15.52Q36.24 15.70 36.14 15.98L36.14 15.98Q35.71 17.23 33.79 17.95L33.79 17.95Q32.57 18.38 31.24 18.38Q29.90 18.38 28.82 17.95Q27.74 17.52 27.12 16.85L27.12 16.85Q25.70 15.36 25.70 11.27Q25.70 7.18 27.12 5.69L27.12 5.69Q27.74 5.02 28.82 4.58Q29.90 4.15 31.22 4.15L31.22 4.15Q33.82 4.15 35.16 5.45Q36.50 6.74 36.50 9.05L36.50 9.05L33.67 9.05Q33.67 7.99 33.14 7.48Q32.62 6.96 31.19 6.96Q29.76 6.96 29.29 7.85Q28.82 8.74 28.82 10.51L28.82 10.51L28.82 11.76Q28.82 14.62 29.93 15.26L29.93 15.26Q30.43 15.58 31.25 15.58Q32.06 15.58 32.58 15.42Q33.10 15.26 33.32 14.88Q33.55 14.50 33.62 14.12Q33.70 13.75 33.72 13.03ZM48.60 4.25L48.60 18.05L46.51 18.05L45.55 16.39L42.22 18.19Q39.43 18.19 38.47 16.18L38.47 16.18Q37.99 15.19 37.81 14.05Q37.63 12.91 37.63 11.68Q37.63 10.44 37.66 9.85Q37.68 9.26 37.78 8.48Q37.87 7.70 38.05 7.18Q38.23 6.65 38.57 6.08Q38.90 5.52 39.38 5.18L39.38 5.18Q40.46 4.44 42.19 4.44L42.19 4.44L45.48 4.44L48.60 4.25ZM43.10 14.90L45.48 13.68L45.48 7.25L43.10 7.25Q41.78 7.25 41.27 8.26Q40.75 9.26 40.75 11.27Q40.75 13.27 41.24 14.09Q41.74 14.90 43.10 14.90L43.10 14.90ZM61.39 14.26L61.39 14.26L61.39 14.62Q61.25 16.42 59.87 17.33Q58.49 18.24 56.42 18.24L56.42 18.24Q53.38 18.24 52.15 17.14L52.15 17.14Q51.02 16.13 51.02 14.16L51.02 14.16L51.02 13.87L53.86 13.87Q53.86 14.98 54.43 15.38Q55.01 15.79 56.42 15.79L56.42 15.79Q58.34 15.79 58.34 14.40L58.34 14.40Q58.34 13.25 57.67 12.86L57.67 12.86Q57.36 12.67 56.88 12.58L56.88 12.58L54.46 12.17Q51.29 11.66 51.29 8.21L51.29 8.21Q51.29 6.29 52.69 5.22Q54.10 4.15 56.26 4.15L56.26 4.15Q61.18 4.15 61.18 8.40L61.18 8.40L61.18 8.71L58.46 8.71Q58.42 7.58 57.86 7.18Q57.31 6.77 56.32 6.77Q55.32 6.77 54.82 7.16Q54.31 7.56 54.31 8.04L54.31 8.04Q54.31 9.41 55.42 9.60L55.42 9.60L58.32 10.13Q61.39 10.70 61.39 14.26ZM79.80 0.96L83.14 0.96L83.14 16.32Q83.14 17.11 82.66 17.68Q82.18 18.24 81.53 18.24L81.53 18.24Q79.87 18.24 78.82 16.32L78.82 16.32L72.91 7.08L72.91 18.05L69.58 18.05L69.58 0.96L72.79 0.96L79.80 12.14L79.80 0.96ZM95.78 4.25L95.78 18.05L93.70 18.05L92.74 16.39L89.40 18.19Q86.62 18.19 85.66 16.18L85.66 16.18Q85.18 15.19 85.00 14.05Q84.82 12.91 84.82 11.68Q84.82 10.44 84.84 9.85Q84.86 9.26 84.96 8.48Q85.06 7.70 85.24 7.18Q85.42 6.65 85.75 6.08Q86.09 5.52 86.57 5.18L86.57 5.18Q87.65 4.44 89.38 4.44L89.38 4.44L92.66 4.44L95.78 4.25ZM90.29 14.90L92.66 13.68L92.66 7.25L90.29 7.25Q88.97 7.25 88.45 8.26Q87.94 9.26 87.94 11.27Q87.94 13.27 88.43 14.09Q88.92 14.90 90.29 14.90L90.29 14.90ZM108.58 14.26L108.58 14.26L108.58 14.62Q108.43 16.42 107.05 17.33Q105.67 18.24 103.61 18.24L103.61 18.24Q100.56 18.24 99.34 17.14L99.34 17.14Q98.21 16.13 98.21 14.16L98.21 14.16L98.21 13.87L101.04 13.87Q101.04 14.98 101.62 15.38Q102.19 15.79 103.61 15.79L103.61 15.79Q105.53 15.79 105.53 14.40L105.53 14.40Q105.53 13.25 104.86 12.86L104.86 12.86Q104.54 12.67 104.06 12.58L104.06 12.58L101.64 12.17Q98.47 11.66 98.47 8.21L98.47 8.21Q98.47 6.29 99.88 5.22Q101.28 4.15 103.44 4.15L103.44 4.15Q108.36 4.15 108.36 8.40L108.36 8.40L108.36 8.71L105.65 8.71Q105.60 7.58 105.05 7.18Q104.50 6.77 103.50 6.77Q102.50 6.77 102 7.16Q101.50 7.56 101.50 8.04L101.50 8.04Q101.50 9.41 102.60 9.60L102.60 9.60L105.50 10.13Q108.58 10.70 108.58 14.26ZM118.20 13.03L118.20 13.03L121.03 13.01Q121.01 13.20 120.98 13.70Q120.96 14.21 120.95 14.39Q120.94 14.57 120.89 14.95Q120.84 15.34 120.78 15.52Q120.72 15.70 120.62 15.98L120.62 15.98Q120.19 17.23 118.27 17.95L118.27 17.95Q117.05 18.38 115.72 18.38Q114.38 18.38 113.30 17.95Q112.22 17.52 111.60 16.85L111.60 16.85Q110.18 15.36 110.18 11.27Q110.18 7.18 111.60 5.69L111.60 5.69Q112.22 5.02 113.30 4.58Q114.38 4.15 115.70 4.15L115.70 4.15Q118.30 4.15 119.64 5.45Q120.98 6.74 120.98 9.05L120.98 9.05L118.15 9.05Q118.15 7.99 117.62 7.48Q117.10 6.96 115.67 6.96Q114.24 6.96 113.77 7.85Q113.30 8.74 113.30 10.51L113.30 10.51L113.30 11.76Q113.30 14.62 114.41 15.26L114.41 15.26Q114.91 15.58 115.73 15.58Q116.54 15.58 117.06 15.42Q117.58 15.26 117.80 14.88Q118.03 14.50 118.10 14.12Q118.18 13.75 118.20 13.03ZM134.23 8.76L134.23 18.05L131.11 18.05L131.11 9.46Q131.11 7.25 129.38 7.25L129.38 7.25L126.41 8.42L126.41 18.05L123.29 18.05L123.29 0L126.41 0L126.41 5.98L130.37 4.20Q132.48 4.20 133.36 5.40Q134.23 6.60 134.23 8.76L134.23 8.76Z" transform="translate(36, 8.976)"></path></svg>